# xmcd
#
# Track frame offsets:
#	150
#	19604
#	39150
#	60216
#	82853
#	102262
#	120480
#	141568
#
# Disc length: 2159
#
# Revision: 1
# Processed by: cddbd v1.5.1PL0 Copyright (c) Steve Scherf et al.
# Submitted via: dBpowerAMP V4.0
# Normalized: r0:TRMNUM
#
DISCID=56086d08
DTITLE=Joe Tex II - The Legacy Continues
DYEAR=1900
DGENRE=
TTITLE0=I Want You The Way You Are
TTITLE1=Really, Really Didn't Know
TTITLE2=You're My Star
TTITLE3=Do You Still Love Me
TTITLE4=Do Everything For You
TTITLE5=Put Your Heart In My Hands
TTITLE6=Something's Going On
TTITLE7=What You Gonna Do With It
EXTD=Album Name: Joe Tex II, The Legacy Continues\n1. I Want You The Way You Are\n2. Really, Really Didn't Know\n3. You're My Star\n4. Do You Still Love Me\n5. Do Everything For You\n6. Put Your Heart In My Hands\n7. Something's Going On\n8
EXTD=What You Gonna Do With It
EXTT0=
EXTT1=
EXTT2=
EXTT3=
EXTT4=
EXTT5=
EXTT6=
EXTT7=
PLAYORDER=
